<svg width="30" height="30" viewBox="0 0 30 30" fill="none" xmlns="http://www.w3.org/2000/svg">
<path d="M15.8438 10.8438C15.6146 10.6146 15.3279 10.5054 14.9838 10.5163C14.6404 10.5262 14.3542 10.6458 14.125 10.875C13.8958 11.1042 13.7812 11.3958 13.7812 11.75C13.7812 12.1042 13.8958 12.3958 14.125 12.625L15.25 13.75L11.2187 13.75C10.8646 13.75 10.5729 13.87 10.3437 14.11C10.1146 14.3492 10 14.6458 10 15C10 15.3542 10.1196 15.6513 10.3587 15.8913C10.5987 16.1304 10.8958 16.25 11.25 16.25L15.25 16.25L14.0937 17.4062C13.8646 17.6354 13.755 17.9221 13.765 18.2662C13.7758 18.6096 13.8958 18.8958 14.125 19.125C14.3542 19.3542 14.6458 19.4687 15 19.4687C15.3542 19.4687 15.6458 19.3542 15.875 19.125L19.125 15.875C19.3542 15.6458 19.4688 15.3542 19.4688 15C19.4688 14.6458 19.3542 14.3542 19.125 14.125L15.8438 10.8438ZM15 2.5C16.7292 2.5 18.3542 2.82834 19.875 3.485C21.3958 4.14083 22.7188 5.03125 23.8438 6.15625C24.9688 7.28125 25.8592 8.60417 26.515 10.125C27.1717 11.6458 27.5 13.2708 27.5 15C27.5 16.7292 27.1717 18.3542 26.515 19.875C25.8592 21.3958 24.9687 22.7188 23.8437 23.8437C22.7187 24.9687 21.3958 25.8596 19.875 26.5162C18.3542 27.1721 16.7292 27.5 15 27.5C13.2708 27.5 11.6458 27.1721 10.125 26.5162C8.60417 25.8596 7.28125 24.9687 6.15625 23.8437C5.03125 22.7187 4.14083 21.3958 3.485 19.875C2.82833 18.3542 2.5 16.7292 2.5 15C2.5 13.2708 2.82833 11.6458 3.485 10.125C4.14083 8.60417 5.03125 7.28125 6.15625 6.15625C7.28125 5.03125 8.60417 4.14083 10.125 3.485C11.6458 2.82834 13.2708 2.5 15 2.5Z" fill="white"/>
</svg>
