<svg width="30" height="30" viewBox="0 0 30 30" fill="none" xmlns="http://www.w3.org/2000/svg">
<path d="M14.1563 19.1562C14.3854 19.3854 14.6721 19.4946 15.0163 19.4837C15.3596 19.4737 15.6458 19.3542 15.875 19.125C16.1042 18.8958 16.2188 18.6042 16.2188 18.25C16.2188 17.8958 16.1042 17.6042 15.875 17.375L14.75 16.25H18.7813C19.1354 16.25 19.4271 16.13 19.6563 15.89C19.8854 15.6508 20 15.3542 20 15C20 14.6458 19.8804 14.3487 19.6413 14.1087C19.4013 13.8696 19.1042 13.75 18.75 13.75H14.75L15.9063 12.5937C16.1354 12.3646 16.245 12.0779 16.235 11.7337C16.2242 11.3904 16.1042 11.1042 15.875 10.875C15.6458 10.6458 15.3542 10.5312 15 10.5312C14.6458 10.5312 14.3542 10.6458 14.125 10.875L10.875 14.125C10.6458 14.3542 10.5313 14.6458 10.5313 15C10.5313 15.3542 10.6458 15.6458 10.875 15.875L14.1563 19.1562ZM15 27.5C13.2708 27.5 11.6458 27.1717 10.125 26.515C8.60417 25.8592 7.28125 24.9687 6.15625 23.8437C5.03125 22.7188 4.14083 21.3958 3.485 19.875C2.82833 18.3542 2.5 16.7292 2.5 15C2.5 13.2708 2.82833 11.6458 3.485 10.125C4.14083 8.60417 5.03125 7.28125 6.15625 6.15625C7.28125 5.03125 8.60417 4.14042 10.125 3.48375C11.6458 2.82792 13.2708 2.5 15 2.5C16.7292 2.5 18.3542 2.82792 19.875 3.48375C21.3958 4.14042 22.7188 5.03125 23.8438 6.15625C24.9688 7.28125 25.8592 8.60417 26.515 10.125C27.1717 11.6458 27.5 13.2708 27.5 15C27.5 16.7292 27.1717 18.3542 26.515 19.875C25.8592 21.3958 24.9688 22.7187 23.8438 23.8437C22.7188 24.9687 21.3958 25.8592 19.875 26.515C18.3542 27.1717 16.7292 27.5 15 27.5Z" fill="white"/>
</svg>
