<svg width="53" height="53" viewBox="0 0 53 53" fill="none" xmlns="http://www.w3.org/2000/svg">
<path d="M27.9908 19.1573C27.5859 18.7524 27.0795 18.5595 26.4715 18.5787C25.8649 18.5964 25.3592 18.8076 24.9543 19.2125C24.5495 19.6173 24.347 20.1326 24.347 20.7583C24.347 21.384 24.5495 21.8993 24.9543 22.3041L26.9418 24.2916L19.82 24.2916C19.1943 24.2916 18.679 24.5036 18.2741 24.9276C17.8693 25.3502 17.6668 25.8743 17.6668 26.5C17.6668 27.1257 17.8781 27.6505 18.3006 28.0745C18.7246 28.497 19.2495 28.7083 19.8752 28.7083L26.9418 28.7083L24.8991 30.751C24.4943 31.1559 24.3007 31.6623 24.3183 32.2704C24.3375 32.8769 24.5495 33.3826 24.9543 33.7875C25.3592 34.1923 25.8745 34.3948 26.5002 34.3948C27.1259 34.3948 27.6411 34.1923 28.046 33.7875L33.7877 28.0458C34.1925 27.641 34.395 27.1257 34.395 26.5C34.395 25.8743 34.1925 25.359 33.7877 24.9541L27.9908 19.1573ZM26.5002 4.41665C29.555 4.41665 32.4259 4.9967 35.1127 6.15681C37.7995 7.31545 40.1366 8.88852 42.1241 10.876C44.1116 12.8635 45.6847 15.2007 46.8433 17.8875C48.0034 20.5743 48.5835 23.4451 48.5835 26.5C48.5835 29.5548 48.0034 32.4257 46.8433 35.1125C45.6847 37.7993 44.1116 40.1364 42.1241 42.1239C40.1366 44.1114 37.7995 45.6852 35.1127 46.8454C32.4259 48.004 29.555 48.5833 26.5002 48.5833C23.4453 48.5833 20.5745 48.004 17.8877 46.8454C15.2009 45.6852 12.8637 44.1114 10.8762 42.1239C8.8887 40.1364 7.31563 37.7993 6.157 35.1125C4.99688 32.4257 4.41683 29.5548 4.41683 26.5C4.41683 23.4451 4.99689 20.5743 6.157 17.8875C7.31563 15.2007 8.8887 12.8635 10.8762 10.876C12.8637 8.88852 15.2009 7.31545 17.8877 6.15681C20.5745 4.9967 23.4453 4.41665 26.5002 4.41665Z" fill="#2870C5"/>
</svg>
