<svg width="53" height="53" viewBox="0 0 53 53" fill="none" xmlns="http://www.w3.org/2000/svg">
<path d="M25.0095 33.8427C25.4143 34.2476 25.9208 34.4404 26.5288 34.4213C27.1353 34.4036 27.6411 34.1924 28.0459 33.7875C28.4508 33.3827 28.6532 32.8674 28.6532 32.2417C28.6532 31.616 28.4508 31.1007 28.0459 30.6959L26.0584 28.7084H33.1803C33.806 28.7084 34.3213 28.4964 34.7261 28.0724C35.131 27.6498 35.3334 27.1257 35.3334 26.5C35.3334 25.8743 35.1222 25.3495 34.6996 24.9255C34.2756 24.5029 33.7508 24.2917 33.1251 24.2917H26.0584L28.1011 22.249C28.506 21.8441 28.6996 21.3377 28.6819 20.7296C28.6628 20.1231 28.4508 19.6174 28.0459 19.2125C27.6411 18.8077 27.1258 18.6052 26.5001 18.6052C25.8744 18.6052 25.3591 18.8077 24.9543 19.2125L19.2126 24.9542C18.8077 25.359 18.6053 25.8743 18.6053 26.5C18.6053 27.1257 18.8077 27.641 19.2126 28.0459L25.0095 33.8427ZM26.5001 48.5834C23.4452 48.5834 20.5744 48.0033 17.8876 46.8432C15.2008 45.6845 12.8636 44.1115 10.8761 42.124C8.88862 40.1365 7.31555 37.7993 6.15692 35.1125C4.9968 32.4257 4.41675 29.5549 4.41675 26.5C4.41675 23.4452 4.9968 20.5743 6.15692 17.8875C7.31555 15.2007 8.88862 12.8636 10.8761 10.8761C12.8636 8.88856 15.2008 7.31476 17.8876 6.15465C20.5744 4.99601 23.4452 4.41669 26.5001 4.41669C29.5549 4.41669 32.4258 4.99601 35.1126 6.15465C37.7994 7.31476 40.1365 8.88856 42.124 10.8761C44.1115 12.8636 45.6846 15.2007 46.8433 17.8875C48.0034 20.5743 48.5834 23.4452 48.5834 26.5C48.5834 29.5549 48.0034 32.4257 46.8433 35.1125C45.6846 37.7993 44.1115 40.1365 42.124 42.124C40.1365 44.1115 37.7994 45.6845 35.1126 46.8432C32.4258 48.0033 29.5549 48.5834 26.5001 48.5834Z" fill="#2870C5"/>
</svg>
